<svg width="22" height="17" viewBox="0 0 22 17" fill="none" xmlns="http://www.w3.org/2000/svg">
<path d="M5.66664 15.0185C5.66664 15.5708 6.11435 16.0185 6.66664 16.0185C7.21892 16.0185 7.66664 15.5708 7.66664 15.0185L5.66664 15.0185ZM7.66664 15.0185C7.66664 13.4074 7.66665 12.3982 7.66666 11.6991C7.66667 11 7.66669 10.6111 7.66669 10.2407H5.66669C5.66669 10.6111 5.66667 11 5.66666 11.6991C5.66665 12.3981 5.66664 13.4074 5.66664 15.0185L7.66664 15.0185ZM7.66669 10.2407C7.66669 10.2396 7.66669 10.2384 7.66669 10.2372C7.66669 10.236 7.66669 10.2348 7.66669 10.2336C7.66669 10.2323 7.66669 10.2311 7.66669 10.2298C7.66669 10.2285 7.66669 10.2272 7.66669 10.2259C7.66669 10.2246 7.66669 10.2232 7.66669 10.2219C7.66669 10.2205 7.66669 10.2192 7.66669 10.2178C7.66669 10.2164 7.66669 10.215 7.66669 10.2135C7.66669 10.2121 7.66669 10.2106 7.66669 10.2092C7.66669 10.2077 7.66669 10.2062 7.66669 10.2047C7.66669 10.2032 7.66669 10.2016 7.66669 10.2001C7.66669 10.1985 7.66669 10.197 7.66669 10.1954C7.66669 10.1938 7.66669 10.1922 7.66669 10.1906C7.66669 10.1889 7.66669 10.1873 7.66669 10.1856C7.66669 10.1839 7.66669 10.1823 7.66669 10.1806C7.66669 10.1789 7.66669 10.1771 7.66669 10.1754C7.66669 10.1736 7.66669 10.1719 7.66669 10.1701C7.66669 10.1683 7.66669 10.1665 7.66669 10.1647C7.66669 10.1629 7.66669 10.161 7.66669 10.1592C7.66669 10.1573 7.66669 10.1555 7.66669 10.1536C7.66669 10.1517 7.66669 10.1498 7.66669 10.1478C7.66669 10.1459 7.66669 10.1439 7.66669 10.142C7.66669 10.14 7.66669 10.138 7.66669 10.136C7.66669 10.134 7.66669 10.132 7.66669 10.1299C7.66669 10.1279 7.66669 10.1258 7.66669 10.1238C7.66669 10.1217 7.66669 10.1196 7.66669 10.1175C7.66669 10.1153 7.66669 10.1132 7.66669 10.111C7.66669 10.1089 7.66669 10.1067 7.66669 10.1045C7.66669 10.1023 7.66669 10.1001 7.66669 10.0979C7.66669 10.0957 7.66669 10.0934 7.66669 10.0912C7.66669 10.0889 7.66669 10.0866 7.66669 10.0843C7.66669 10.082 7.66669 10.0797 7.66669 10.0774C7.66669 10.075 7.66669 10.0727 7.66669 10.0703C7.66669 10.0679 7.66669 10.0655 7.66669 10.0631C7.66669 10.0607 7.66669 10.0583 7.66669 10.0558C7.66669 10.0534 7.66669 10.0509 7.66669 10.0485C7.66669 10.046 7.66669 10.0435 7.66669 10.041C7.66669 10.0384 7.66669 10.0359 7.66669 10.0334C7.66669 10.0308 7.66669 10.0282 7.66669 10.0257C7.66669 10.0231 7.66669 10.0205 7.66669 10.0178C7.66669 10.0152 7.66669 10.0126 7.66669 10.0099C7.66669 10.0073 7.66669 10.0046 7.66669 10.0019C7.66669 9.99921 7.66669 9.9965 7.66669 9.99378C7.66669 9.99105 7.66669 9.98831 7.66669 9.98554C7.66669 9.98278 7.66669 9.98 7.66669 9.97721C7.66669 9.97441 7.66669 9.9716 7.66669 9.96877C7.66669 9.96594 7.66669 9.96309 7.66669 9.96023C7.66669 9.95736 7.66669 9.95448 7.66669 9.95158C7.66669 9.94868 7.66669 9.94576 7.66669 9.94283C7.66669 9.9399 7.66669 9.93695 7.66669 9.93398C7.66669 9.93101 7.66669 9.92803 7.66669 9.92503C7.66669 9.92203 7.66669 9.91901 7.66669 9.91597C7.66669 9.91294 7.66669 9.90989 7.66669 9.90682C7.66669 9.90375 7.66669 9.90067 7.66669 9.89756C7.66669 9.89446 7.66669 9.89134 7.66669 9.88821C7.66669 9.88507 7.66669 9.88192 7.66669 9.87875C7.66669 9.87558 7.66669 9.8724 7.66669 9.8692C7.66669 9.86599 7.66669 9.86278 7.66669 9.85954C7.66669 9.85631 7.66669 9.85305 7.66669 9.84979C7.66669 9.84652 7.66669 9.84324 7.66669 9.83994C7.66669 9.83663 7.66669 9.83332 7.66669 9.82998C7.66669 9.82665 7.66669 9.8233 7.66669 9.81994C7.66669 9.81657 7.66669 9.81319 7.66669 9.80979C7.66669 9.80639 7.66669 9.80298 7.66669 9.79955C7.66669 9.79612 7.66669 9.79267 7.66669 9.78921C7.66669 9.78575 7.66669 9.78227 7.66669 9.77877C7.66669 9.77528 7.66669 9.77177 7.66669 9.76824C7.66669 9.76472 7.66669 9.76117 7.66669 9.75762C7.66669 9.75406 7.66669 9.75048 7.66669 9.74689C7.66669 9.7433 7.66669 9.7397 7.66669 9.73608C7.66669 9.73246 7.66669 9.72882 7.66669 9.72517C7.66669 9.72151 7.66669 9.71785 7.66669 9.71416C7.66669 9.71048 7.66669 9.70678 7.66669 9.70306C7.66669 9.69935 7.66669 9.69562 7.66669 9.69187C7.66669 9.68812 7.66669 9.68436 7.66669 9.68058C7.66669 9.67681 7.66669 9.67301 7.66669 9.66921C7.66669 9.6654 7.66669 9.66157 7.66669 9.65774C7.66669 9.6539 7.66669 9.65004 7.66669 9.64617C7.66669 9.6423 7.66669 9.63842 7.66669 9.63452C7.66669 9.63062 7.66669 9.62671 7.66669 9.62278C7.66669 9.61885 7.66669 9.6149 7.66669 9.61094C7.66669 9.60698 7.66669 9.603 7.66669 9.59901C7.66669 9.59502 7.66669 9.59102 7.66669 9.587C7.66669 9.58298 7.66669 9.57894 7.66669 9.57489C7.66669 9.57084 7.66669 9.56678 7.66669 9.5627C7.66669 9.55862 7.66669 9.55452 7.66669 9.55041C7.66669 9.5463 7.66669 9.54218 7.66669 9.53804C7.66669 9.5339 7.66669 9.52975 7.66669 9.52558C7.66669 9.52141 7.66669 9.51723 7.66669 9.51303C7.66669 9.50883 7.66669 9.50462 7.66669 9.5004C7.66669 9.49617 7.66669 9.49193 7.66669 9.48767C7.66669 9.48342 7.66669 9.47915 7.66669 9.47486C7.66669 9.47058 7.66669 9.46628 7.66669 9.46197C7.66669 9.45765 7.66669 9.45333 7.66669 9.44898C7.66669 9.44464 7.66669 9.44029 7.66669 9.43592C7.66669 9.43155 7.66669 9.42716 7.66669 9.42276C7.66669 9.41837 7.66669 9.41395 7.66669 9.40953C7.66669 9.4051 7.66669 9.40066 7.66669 9.3962C7.66669 9.39175 7.66669 9.38728 7.66669 9.3828C7.66669 9.37831 7.66669 9.37382 7.66669 9.36931C7.66669 9.3648 7.66669 9.36027 7.66669 9.35573C7.66669 9.35119 7.66669 9.34664 7.66669 9.34208C7.66669 9.33751 7.66669 9.33293 7.66669 9.32834C7.66669 9.32374 7.66669 9.31914 7.66669 9.31451C7.66669 9.30989 7.66669 9.30526 7.66669 9.30061C7.66669 9.29596 7.66669 9.2913 7.66669 9.28663C7.66669 9.28195 7.66669 9.27726 7.66669 9.27256C7.66669 9.26786 7.66669 9.26314 7.66669 9.25841C7.66669 9.25368 7.66669 9.24894 7.66669 9.24418C7.66669 9.23943 7.66669 9.23466 7.66669 9.22988C7.66669 9.22509 7.66669 9.2203 7.66669 9.21549C7.66669 9.21068 7.66669 9.20586 7.66669 9.20102C7.66669 9.19618 7.66669 9.19134 7.66669 9.18647C7.66669 9.18161 7.66669 9.17674 7.66669 9.17185C7.66669 9.16696 7.66669 9.16206 7.66669 9.15715C7.66669 9.15223 7.66669 9.14731 7.66669 9.14237C7.66669 9.13743 7.66669 9.13247 7.66669 9.12751C7.66669 9.12254 7.66669 9.11756 7.66669 9.11257C7.66669 9.10758 7.66669 9.10258 7.66669 9.09756C7.66669 9.09254 7.66669 9.08751 7.66669 9.08247C7.66669 9.07743 7.66669 9.07237 7.66669 9.0673C7.66669 9.06224 7.66669 9.05716 7.66669 9.05206C7.66669 9.04697 7.66669 9.04187 7.66669 9.03675C7.66669 9.03163 7.66669 9.0265 7.66669 9.02136C7.66669 9.01621 7.66669 9.01106 7.66669 9.00589C7.66669 9.00072 7.66669 8.99554 7.66669 8.99035C7.66669 8.98516 7.66669 8.97995 7.66669 8.97474C7.66669 8.96952 7.66669 8.96429 7.66669 8.95905C7.66669 8.95381 7.66669 8.94856 7.66669 8.94329C7.66669 8.93802 7.66669 8.93275 7.66669 8.92746C7.66669 8.92217 7.66669 8.91686 7.66669 8.91155C7.66669 8.90624 7.66669 8.90091 7.66669 8.89557C7.66669 8.89024 7.66669 8.88489 7.66669 8.87952C7.66669 8.87416 7.66669 8.86879 7.66669 8.8634C7.66669 8.85802 7.66669 8.85262 7.66669 8.84721C7.66669 8.8418 7.66669 8.83638 7.66669 8.83095C7.66669 8.82552 7.66669 8.82007 7.66669 8.81462C7.66669 8.80916 7.66669 8.8037 7.66669 8.79822C7.66669 8.79274 7.66669 8.78725 7.66669 8.78174C7.66669 8.77624 7.66669 8.77073 7.66669 8.7652C7.66669 8.75968 7.66669 8.75414 7.66669 8.7486C7.66669 8.74305 7.66669 8.73749 7.66669 8.73192C7.66669 8.72635 7.66669 8.72077 7.66669 8.71517C7.66669 8.70958 7.66669 8.70397 7.66669 8.69836C7.66669 8.69274 7.66669 8.68712 7.66669 8.68148C7.66669 8.67584 7.66669 8.67019 7.66669 8.66453C7.66669 8.65887 7.66669 8.6532 7.66669 8.64752C7.66669 8.64183 7.66669 8.63614 7.66669 8.63044C7.66669 8.62473 7.66669 8.61902 7.66669 8.61329C7.66669 8.60757 7.66669 8.60183 7.66669 8.59608C7.66669 8.59033 7.66669 8.58457 7.66669 8.5788C7.66669 8.57303 7.66669 8.56725 7.66669 8.56146C7.66669 8.55567 7.66669 8.54987 7.66669 8.54406C7.66669 8.53825 7.66669 8.53242 7.66669 8.52659C7.66669 8.52076 7.66669 8.51491 7.66669 8.50906C7.66669 8.5032 7.66669 8.49734 7.66669 8.49146C7.66669 8.48558 7.66669 8.4797 7.66669 8.4738C7.66669 8.4679 7.66669 8.462 7.66669 8.45608C7.66669 8.45016 7.66669 8.44423 7.66669 8.4383C7.66669 8.43236 7.66669 8.42641 7.66669 8.42045C7.66669 8.41449 7.66669 8.40852 7.66669 8.40255C7.66669 8.39657 7.66669 8.39058 7.66669 8.38458C7.66669 8.37858 7.66669 8.37257 7.66669 8.36655C7.66669 8.36053 7.66669 8.3545 7.66669 8.34846C7.66669 8.34242 7.66669 8.33637 7.66669 8.33031C7.66669 8.32425 7.66669 8.31818 7.66669 8.31211C7.66669 8.30603 7.66669 8.29994 7.66669 8.29384C7.66669 8.28774 7.66669 8.28163 7.66669 8.27551C7.66669 8.26939 7.66669 8.26327 7.66669 8.25713C7.66669 8.25099 7.66669 8.24484 7.66669 8.23869C7.66669 8.23253 7.66669 8.22636 7.66669 8.22019C7.66669 8.21401 7.66669 8.20782 7.66669 8.20163C7.66669 8.19543 7.66669 8.18923 7.66669 8.18302C7.66669 8.1768 7.66669 8.17058 7.66669 8.16434C7.66669 8.15811 7.66669 8.15187 7.66669 8.14562C7.66669 8.13937 7.66669 8.1331 7.66669 8.12683C7.66669 8.12056 7.66669 8.11429 7.66669 8.108C7.66669 8.10171 7.66669 8.09541 7.66669 8.0891C7.66669 8.0828 7.66669 8.07648 7.66669 8.07015C7.66669 8.06383 7.66669 8.0575 7.66669 8.05115C7.66669 8.04481 7.66669 8.03846 7.66669 8.0321C7.66669 8.02573 7.66669 8.01936 7.66669 8.01299C7.66669 8.00661 7.66669 8.00022 7.66669 7.99382C7.66669 7.98743 7.66669 7.98102 7.66669 7.97461C7.66669 7.96819 7.66669 7.96177 7.66669 7.95534C7.66669 7.9489 7.66669 7.94246 7.66669 7.93602C7.66669 7.92957 7.66669 7.92311 7.66669 7.91664C7.66669 7.91018 7.66669 7.9037 7.66669 7.89722C7.66669 7.89073 7.66669 7.88424 7.66669 7.87774C7.66669 7.87124 7.66669 7.86473 7.66669 7.85822C7.66669 7.8517 7.66669 7.84517 7.66669 7.83864C7.66669 7.83211 7.66669 7.82556 7.66669 7.81901C7.66669 7.81246 7.66669 7.8059 7.66669 7.79934C7.66669 7.79277 7.66669 7.78619 7.66669 7.77961C7.66669 7.77303 7.66669 7.76644 7.66669 7.75984C7.66669 7.75324 7.66669 7.74663 7.66669 7.74001C7.66669 7.7334 7.66669 7.72678 7.66669 7.72014C7.66669 7.71351 7.66669 7.70687 7.66669 7.70023C7.66669 7.69358 7.66669 7.68692 7.66669 7.68026C7.66669 7.6736 7.66669 7.66693 7.66669 7.66025C7.66669 7.65357 7.66669 7.64688 7.66669 7.64019C7.66669 7.63349 7.66669 7.62679 7.66669 7.62008C7.66669 7.61337 7.66669 7.60665 7.66669 7.59993C7.66669 7.5932 7.66669 7.58647 7.66669 7.57973C7.66669 7.57299 7.66669 7.56624 7.66669 7.55949C7.66669 7.55273 7.66669 7.54597 7.66669 7.5392C7.66669 7.53243 7.66669 7.52565 7.66669 7.51887C7.66669 7.51208 7.66669 7.50529 7.66669 7.49849C7.66669 7.49169 7.66669 7.48489 7.66669 7.47807C7.66669 7.47126 7.66669 7.46444 7.66669 7.45761C7.66669 7.45078 7.66669 7.44395 7.66669 7.4371C7.66669 7.43026 7.66669 7.42341 7.66669 7.41655C7.66669 7.4097 7.66669 7.40283 7.66669 7.39596C7.66669 7.38909 7.66669 7.38222 7.66669 7.37533C7.66669 7.36845 7.66669 7.36155 7.66669 7.35466C7.66669 7.34776 7.66669 7.34085 7.66669 7.33394C7.66669 7.32703 7.66669 7.32011 7.66669 7.31318C7.66669 7.30626 7.66669 7.29933 7.66669 7.29239C7.66669 7.28545 7.66669 7.2785 7.66669 7.27155C7.66669 7.2646 7.66669 7.25764 7.66669 7.25067C7.66669 7.24371 7.66669 7.23674 7.66669 7.22976C7.66669 7.22278 7.66669 7.21579 7.66669 7.2088C7.66669 7.20181 7.66669 7.19481 7.66669 7.18781C7.66669 7.18081 7.66669 7.1738 7.66669 7.16678C7.66669 7.15976 7.66669 7.15274 7.66669 7.14571C7.66669 7.13868 7.66669 7.13164 7.66669 7.1246C7.66669 7.11756 7.66669 7.11051 7.66669 7.10346C7.66669 7.0964 7.66669 7.08934 7.66669 7.08228C7.66669 7.07521 7.66669 7.06814 7.66669 7.06106C7.66669 7.05398 7.66669 7.0469 7.66669 7.03981C7.66669 7.03272 7.66669 7.02562 7.66669 7.01852C7.66669 7.01142 7.66669 7.00431 7.66669 6.99719C7.66669 6.99008 7.66669 6.98296 7.66669 6.97584C7.66669 6.96871 7.66669 6.96158 7.66669 6.95444C7.66669 6.94731 7.66669 6.94016 7.66669 6.93301C7.66669 6.92587 7.66669 6.91871 7.66669 6.91155C7.66669 6.90439 7.66669 6.89723 7.66669 6.89006C7.66669 6.88289 7.66669 6.87571 7.66669 6.86853C7.66669 6.86135 7.66669 6.85416 7.66669 6.84697C7.66669 6.83978 7.66669 6.83258 7.66669 6.82538C7.66669 6.81817 7.66669 6.81097 7.66669 6.80375C7.66669 6.79654 7.66669 6.78932 7.66669 6.7821C7.66669 6.77487 7.66669 6.76764 7.66669 6.76041C7.66669 6.75317 7.66669 6.74593 7.66669 6.73869C7.66669 6.73144 7.66669 6.72419 7.66669 6.71694C7.66669 6.70969 7.66669 6.70243 7.66669 6.69516C7.66669 6.6879 7.66669 6.68063 7.66669 6.67335C7.66669 6.66608 7.66669 6.6588 7.66669 6.65151C7.66669 6.64423 7.66669 6.63694 7.66669 6.62965C7.66669 6.62235 7.66669 6.61505 7.66669 6.60775C7.66669 6.60045 7.66669 6.59314 7.66669 6.58583C7.66669 6.57851 7.66669 6.5712 7.66669 6.56387C7.66669 6.55655 7.66669 6.54922 7.66669 6.54189C7.66669 6.53456 7.66669 6.52723 7.66669 6.51989C7.66669 6.51255 7.66669 6.5052 7.66669 6.49785C7.66669 6.4905 7.66669 6.48315 7.66669 6.47579C7.66669 6.46843 7.66669 6.46107 7.66669 6.45371C7.66669 6.44634 7.66669 6.43897 7.66669 6.43159C7.66669 6.42422 7.66669 6.41684 7.66669 6.40946C7.66669 6.40207 7.66669 6.39469 7.66669 6.38729C7.66669 6.3799 7.66669 6.37251 7.66669 6.36511C7.66669 6.35771 7.66669 6.3503 7.66669 6.3429C7.66669 6.33549 7.66669 6.32808 7.66669 6.32066C7.66669 6.31325 7.66669 6.30583 7.66669 6.2984C7.66669 6.29098 7.66669 6.28355 7.66669 6.27612C7.66669 6.26869 7.66669 6.26125 7.66669 6.25382C7.66669 6.24638 7.66669 6.23894 7.66669 6.23149C7.66669 6.22404 7.66669 6.21659 7.66669 6.20914C7.66669 6.20169 7.66669 6.19423 7.66669 6.18677C7.66669 6.17931 7.66669 6.17185 7.66669 6.16438C7.66669 6.15691 7.66669 6.14944 7.66669 6.14196C7.66669 6.13449 7.66669 6.12701 7.66669 6.11953C7.66669 6.11205 7.66669 6.10457 7.66669 6.09708C7.66669 6.08959 7.66669 6.0821 7.66669 6.0746C7.66669 6.06711 7.66669 6.05961 7.66669 6.05211C7.66669 6.04461 7.66669 6.03711 7.66669 6.0296C7.66669 6.02209 7.66669 6.01458 7.66669 6.00707C7.66669 5.99956 7.66669 5.99204 7.66669 5.98452C7.66669 5.977 7.66669 5.96948 7.66669 5.96195C7.66669 5.95443 7.66669 5.9469 7.66669 5.93937C7.66669 5.93184 7.66669 5.9243 7.66669 5.91677C7.66669 5.90923 7.66669 5.90169 7.66669 5.89415C7.66669 5.8866 7.66669 5.87906 7.66669 5.87151C7.66669 5.86396 7.66669 5.85641 7.66669 5.84886C7.66669 5.84131 7.66669 5.83375 7.66669 5.82619C7.66669 5.81863 7.66669 5.81107 7.66669 5.80351C7.66669 5.79595 7.66669 5.78838 7.66669 5.78081C7.66669 5.77324 7.66669 5.76567 7.66669 5.7581C7.66669 5.75053 7.66669 5.74295 7.66669 5.73537C7.66669 5.72779 7.66669 5.72021 7.66669 5.71263C7.66669 5.70505 7.66669 5.69746 7.66669 5.68988C7.66669 5.68229 7.66669 5.6747 7.66669 5.66711C7.66669 5.65952 7.66669 5.65192 7.66669 5.64433C7.66669 5.63673 7.66669 5.62914 7.66669 5.62154C7.66669 5.61394 7.66669 5.60633 7.66669 5.59873C7.66669 5.59113 7.66669 5.58352 7.66669 5.57591C7.66669 5.56831 7.66669 5.5607 7.66669 5.55309C7.66669 5.54547 7.66669 5.53786 7.66669 5.53025C7.66669 5.52263 7.66669 5.51501 7.66669 5.5074C7.66669 5.49978 7.66669 5.49216 7.66669 5.48454C7.66669 5.47691 7.66669 5.46929 7.66669 5.46167C7.66669 5.45404 7.66669 5.44641 7.66669 5.43879C7.66669 5.43116 7.66669 5.42353 7.66669 5.4159C7.66669 5.40827 7.66669 5.40063 7.66669 5.393C7.66669 5.38537 7.66669 5.37773 7.66669 5.37009C7.66669 5.36246 7.66669 5.35482 7.66669 5.34718C7.66669 5.33954 7.66669 5.3319 7.66669 5.32426C7.66669 5.31662 7.66669 5.30897 7.66669 5.30133C7.66669 5.29369 7.66669 5.28604 7.66669 5.27839C7.66669 5.27075 7.66669 5.2631 7.66669 5.25545C7.66669 5.2478 7.66669 5.24015 7.66669 5.2325C7.66669 5.22485 7.66669 5.2172 7.66669 5.20955C7.66669 5.20189 7.66669 5.19424 7.66669 5.18659C7.66669 5.17893 7.66669 5.17128 7.66669 5.16362C7.66669 5.15597 7.66669 5.14831 7.66669 5.14065C7.66669 5.13299 7.66669 5.12534 7.66669 5.11768C7.66669 5.11002 7.66669 5.10236 7.66669 5.0947C7.66669 5.08704 7.66669 5.07938 7.66669 5.07172C7.66669 5.06405 7.66669 5.05639 7.66669 5.04873C7.66669 5.04107 7.66669 5.03341 7.66669 5.02574C7.66669 5.01808 7.66669 5.01042 7.66669 5.00275C7.66669 4.99509 7.66669 4.98742 7.66669 4.97976C7.66669 4.97209 7.66669 4.96443 7.66669 4.95676C7.66669 4.9491 7.66669 4.94143 7.66669 4.93377C7.66669 4.9261 7.66669 4.91843 7.66669 4.91077C7.66669 4.9031 7.66669 4.89544 7.66669 4.88777C7.66669 4.8801 7.66669 4.87244 7.66669 4.86477C7.66669 4.85711 7.66669 4.84944 7.66669 4.84177C7.66669 4.83411 7.66669 4.82644 7.66669 4.81877C7.66669 4.81111 7.66669 4.80344 7.66669 4.79578C7.66669 4.78811 7.66669 4.78045 7.66669 4.77278C7.66669 4.76512 7.66669 4.75745 7.66669 4.74979C7.66669 4.74212 7.66669 4.73446 7.66669 4.72679C7.66669 4.71913 7.66669 4.71147 7.66669 4.7038C7.66669 4.69614 7.66669 4.68848 7.66669 4.68081C7.66669 4.67315 7.66669 4.66549 7.66669 4.65783C7.66669 4.65017 7.66669 4.64251 7.66669 4.63485C7.66669 4.62719 7.66669 4.61953 7.66669 4.61187C7.66669 4.60421 7.66669 4.59655 7.66669 4.58889C7.66669 4.58124 7.66669 4.57358 7.66669 4.56592C7.66669 4.55827 7.66669 4.55061 7.66669 4.54296C7.66669 4.53531 7.66669 4.52765 7.66669 4.52C7.66669 4.51235 7.66669 4.5047 7.66669 4.49705C7.66669 4.4894 7.66669 4.48175 7.66669 4.4741C7.66669 4.46645 7.66669 4.4588 7.66669 4.45116C7.66669 4.44351 7.66669 4.43586 7.66669 4.42822C7.66669 4.42058 7.66669 4.41293 7.66669 4.40529C7.66669 4.39765 7.66669 4.39001 7.66669 4.38237C7.66669 4.37473 7.66669 4.36709 7.66669 4.35946C7.66669 4.35182 7.66669 4.34419 7.66669 4.33655C7.66669 4.32892 7.66669 4.32129 7.66669 4.31365C7.66669 4.30602 7.66669 4.29839 7.66669 4.29077C7.66669 4.28314 7.66669 4.27551 7.66669 4.26789C7.66669 4.26026 7.66669 4.25264 7.66669 4.24502C7.66669 4.2374 7.66669 4.22978 7.66669 4.22216C7.66669 4.21454 7.66669 4.20692 7.66669 4.19931C7.66669 4.1917 7.66669 4.18408 7.66669 4.17647C7.66669 4.16886 7.66669 4.16125 7.66669 4.15364C7.66669 4.14604 7.66669 4.13843 7.66669 4.13083C7.66669 4.12323 7.66669 4.11562 7.66669 4.10802C7.66669 4.10043 7.66669 4.09283 7.66669 4.08523C7.66669 4.07764 7.66669 4.07004 7.66669 4.06245C7.66669 4.05486 7.66669 4.04727 7.66669 4.03969C7.66669 4.0321 7.66669 4.02452 7.66669 4.01693C7.66669 4.00935 7.66669 4.00177 7.66669 3.99419C7.66669 3.98662 7.66669 3.97904 7.66669 3.97147C7.66669 3.9639 7.66669 3.95633 7.66669 3.94876C7.66669 3.94119 7.66669 3.93362 7.66669 3.92606C7.66669 3.9185 7.66669 3.91094 7.66669 3.90338C7.66669 3.89582 7.66669 3.88827 7.66669 3.88071C7.66669 3.87316 7.66669 3.86561 7.66669 3.85806C7.66669 3.85052 7.66669 3.84297 7.66669 3.83543C7.66669 3.82789 7.66669 3.82035 7.66669 3.81281C7.66669 3.80527 7.66669 3.79774 7.66669 3.79021C7.66669 3.78268 7.66669 3.77515 7.66669 3.76763C7.66669 3.7601 7.66669 3.75258 7.66669 3.74506C7.66669 3.73754 7.66669 3.73003 7.66669 3.72251C7.66669 3.715 7.66669 3.70749 7.66669 3.69998C7.66669 3.69248 7.66669 3.68497 7.66669 3.67747C7.66669 3.66997 7.66669 3.66248 7.66669 3.65498C7.66669 3.64749 7.66669 3.64 7.66669 3.63251C7.66669 3.62502 7.66669 3.61754 7.66669 3.61006C7.66669 3.60258 7.66669 3.5951 7.66669 3.58763C7.66669 3.58015 7.66669 3.57268 7.66669 3.56522C7.66669 3.55775 7.66669 3.55029 7.66669 3.54283C7.66669 3.53537 7.66669 3.52791 7.66669 3.52046C7.66669 3.513 7.66669 3.50556 7.66669 3.49811C7.66669 3.49066 7.66669 3.48322 7.66669 3.47579C7.66669 3.46835 7.66669 3.46091 7.66669 3.45348C7.66669 3.44605 7.66669 3.43863 7.66669 3.4312C7.66669 3.42378 7.66669 3.41636 7.66669 3.40895C7.66669 3.40153 7.66669 3.39412 7.66669 3.38671C7.66669 3.37931 7.66669 3.3719 7.66669 3.3645C7.66669 3.3571 7.66669 3.34971 7.66669 3.34232C7.66669 3.33493 7.66669 3.32754 7.66669 3.32016C7.66669 3.31278 7.66669 3.3054 7.66669 3.29802C7.66669 3.29065 7.66669 3.28328 7.66669 3.27591C7.66669 3.26855 7.66669 3.26119 7.66669 3.25383C7.66669 3.24647 7.66669 3.23912 7.66669 3.23177C7.66669 3.22442 7.66669 3.21708 7.66669 3.20974C7.66669 3.2024 7.66669 3.19507 7.66669 3.18773C7.66669 3.1804 7.66669 3.17308 7.66669 3.16576C7.66669 3.15844 7.66669 3.15112 7.66669 3.14381C7.66669 3.1365 7.66669 3.12919 7.66669 3.12189C7.66669 3.11458 7.66669 3.10729 7.66669 3.09999C7.66669 3.0927 7.66669 3.08541 7.66669 3.07813C7.66669 3.07084 7.66669 3.06356 7.66669 3.05629C7.66669 3.04902 7.66669 3.04175 7.66669 3.03448C7.66669 3.02722 7.66669 3.01996 7.66669 3.01271C7.66669 3.00545 7.66669 2.99821 7.66669 2.99096C7.66669 2.98372 7.66669 2.97648 7.66669 2.96925C7.66669 2.96201 7.66669 2.95478 7.66669 2.94756C7.66669 2.94034 7.66669 2.93312 7.66669 2.92591C7.66669 2.91869 7.66669 2.91149 7.66669 2.90428C7.66669 2.89708 7.66669 2.88989 7.66669 2.88269C7.66669 2.8755 7.66669 2.86832 7.66669 2.86114C7.66669 2.85396 7.66669 2.84678 7.66669 2.83961C7.66669 2.83244 7.66669 2.82528 7.66669 2.81812C7.66669 2.81096 7.66669 2.80381 7.66669 2.79666C7.66669 2.78951 7.66669 2.78237 7.66669 2.77524C7.66669 2.7681 7.66669 2.76097 7.66669 2.75384C7.66669 2.74672 7.66669 2.7396 7.66669 2.73249C7.66669 2.72538 7.66669 2.71827 7.66669 2.71117C7.66669 2.70407 7.66669 2.69697 7.66669 2.68988C7.66669 2.68279 7.66669 2.67571 7.66669 2.66863C7.66669 2.66155 7.66669 2.65448 7.66669 2.64742C7.66669 2.64035 7.66669 2.63329 7.66669 2.62624C7.66669 2.61919 7.66669 2.61214 7.66669 2.6051C7.66669 2.59806 7.66669 2.59102 7.66669 2.584C7.66669 2.57697 7.66669 2.56994 7.66669 2.56293C7.66669 2.55591 7.66669 2.5489 7.66669 2.5419C7.66669 2.5349 7.66669 2.5279 7.66669 2.52091C7.66669 2.51392 7.66669 2.50694 7.66669 2.49996C7.66669 2.49298 7.66669 2.48601 7.66669 2.47905C7.66669 2.47208 7.66669 2.46512 7.66669 2.45817C7.66669 2.45122 7.66669 2.44428 7.66669 2.43734C7.66669 2.4304 7.66669 2.42347 7.66669 2.41655C7.66669 2.40962 7.66669 2.4027 7.66669 2.39579C7.66669 2.38888 7.66669 2.38198 7.66669 2.37508C7.66669 2.36818 7.66669 2.36129 7.66669 2.35441C7.66669 2.34753 7.66669 2.34065 7.66669 2.33378C7.66669 2.32691 7.66669 2.32005 7.66669 2.31319C7.66669 2.30634 7.66669 2.29949 7.66669 2.29265C7.66669 2.28581 7.66669 2.27897 7.66669 2.27215C7.66669 2.26532 7.66669 2.2585 7.66669 2.25169C7.66669 2.24487 7.66669 2.23807 7.66669 2.23127C7.66669 2.22447 7.66669 2.21768 7.66669 2.2109C7.66669 2.20411 7.66669 2.19734 7.66669 2.19057C7.66669 2.1838 7.66669 2.17704 7.66669 2.17029C7.66669 2.16353 7.66669 2.15679 7.66669 2.15005C7.66669 2.14331 7.66669 2.13658 7.66669 2.12985C7.66669 2.12313 7.66669 2.11641 7.66669 2.1097C7.66669 2.103 7.66669 2.0963 7.66669 2.0896C7.66669 2.08291 7.66669 2.07622 7.66669 2.06955C7.66669 2.06287 7.66669 2.0562 7.66669 2.04954C7.66669 2.04288 7.66669 2.03622 7.66669 2.02958C7.66669 2.02293 7.66669 2.01629 7.66669 2.00966C7.66669 2.00303 7.66669 1.99641 7.66669 1.98979C7.66669 1.98318 7.66669 1.97657 7.66669 1.96998C7.66669 1.96338 7.66669 1.95679 7.66669 1.95021C7.66669 1.94362 7.66669 1.93705 7.66669 1.93048C7.66669 1.92392 7.66669 1.91736 7.66669 1.91081C7.66669 1.90426 7.66669 1.89772 7.66669 1.89119C7.66669 1.88466 7.66669 1.87813 7.66669 1.87162C7.66669 1.8651 7.66669 1.85859 7.66669 1.8521C7.66669 1.8456 7.66669 1.83911 7.66669 1.83262C7.66669 1.82614 7.66669 1.81967 7.66669 1.8132C7.66669 1.80674 7.66669 1.80028 7.66669 1.79384C7.66669 1.78739 7.66669 1.78095 7.66669 1.77452C7.66669 1.76809 7.66669 1.76167 7.66669 1.75525C7.66669 1.74884 7.66669 1.74244 7.66669 1.73604C7.66669 1.72965 7.66669 1.72326 7.66669 1.71688C7.66669 1.71051 7.66669 1.70414 7.66669 1.69778C7.66669 1.69142 7.66669 1.68507 7.66669 1.67873C7.66669 1.67238 7.66669 1.66605 7.66669 1.65973C7.66669 1.6534 7.66669 1.64709 7.66669 1.64078C7.66669 1.63448 7.66669 1.62818 7.66669 1.6219C7.66669 1.61561 7.66669 1.60933 7.66669 1.60306C7.66669 1.59679 7.66669 1.59053 7.66669 1.58428C7.66669 1.57803 7.66669 1.57179 7.66669 1.56556C7.66669 1.55933 7.66669 1.55311 7.66669 1.5469C7.66669 1.54068 7.66669 1.53448 7.66669 1.52829C7.66669 1.52209 7.66669 1.51591 7.66669 1.50973C7.66669 1.50356 7.66669 1.49739 7.66669 1.49124C7.66669 1.48508 7.66669 1.47894 7.66669 1.4728C7.66669 1.46666 7.66669 1.46054 7.66669 1.45442C7.66669 1.4483 7.66669 1.4422 7.66669 1.4361C7.66669 1.43 7.66669 1.42392 7.66669 1.41784C7.66669 1.41176 7.66669 1.40569 7.66669 1.39964C7.66669 1.39358 7.66669 1.38753 7.66669 1.38149C7.66669 1.37546 7.66669 1.36943 7.66669 1.36341C7.66669 1.35739 7.66669 1.35138 7.66669 1.34539C7.66669 1.33939 7.66669 1.3334 7.66669 1.32742C7.66669 1.32145 7.66669 1.31548 7.66669 1.30952C7.66669 1.30357 7.66669 1.29762 7.66669 1.29168C7.66669 1.28575 7.66669 1.27982 7.66669 1.27391C7.66669 1.26799 7.66669 1.26208 7.66669 1.25619C7.66669 1.25029 7.66669 1.24441 7.66669 1.23854C7.66669 1.23266 7.66669 1.2268 7.66669 1.22095C7.66669 1.21509 7.66669 1.20925 7.66669 1.20342C7.66669 1.19759 7.66669 1.19176 7.66669 1.18595C7.66669 1.18014 7.66669 1.17434 7.66669 1.16855C7.66669 1.16276 7.66669 1.15699 7.66669 1.15122C7.66669 1.14545 7.66669 1.13969 7.66669 1.13395C7.66669 1.1282 7.66669 1.12247 7.66669 1.11674C7.66669 1.11102 7.66669 1.1053 7.66669 1.0996C7.66669 1.0939 7.66669 1.08821 7.66669 1.08253C7.66669 1.07685 7.66669 1.07118 7.66669 1.06552C7.66669 1.05986 7.66669 1.05421 7.66669 1.04858C7.66669 1.04294 7.66669 1.03732 7.66669 1.0317C7.66669 1.02609 7.66669 1.02049 7.66669 1.0149C7.66669 1.0093 7.66669 1.00372 7.66669 0.998155C7.66669 0.992587 7.66669 0.987029 7.66669 0.981483H5.66669C5.66669 0.987029 5.66669 0.992587 5.66669 0.998155C5.66669 1.00372 5.66669 1.0093 5.66669 1.0149C5.66669 1.02049 5.66669 1.02609 5.66669 1.0317C5.66669 1.03732 5.66669 1.04294 5.66669 1.04858C5.66669 1.05421 5.66669 1.05986 5.66669 1.06552C5.66669 1.07118 5.66669 1.07685 5.66669 1.08253C5.66669 1.08821 5.66669 1.0939 5.66669 1.0996C5.66669 1.1053 5.66669 1.11102 5.66669 1.11674C5.66669 1.12247 5.66669 1.1282 5.66669 1.13395C5.66669 1.13969 5.66669 1.14545 5.66669 1.15122C5.66669 1.15699 5.66669 1.16276 5.66669 1.16855C5.66669 1.17434 5.66669 1.18014 5.66669 1.18595C5.66669 1.19176 5.66669 1.19759 5.66669 1.20342C5.66669 1.20925 5.66669 1.21509 5.66669 1.22095C5.66669 1.2268 5.66669 1.23266 5.66669 1.23854C5.66669 1.24441 5.66669 1.25029 5.66669 1.25619C5.66669 1.26208 5.66669 1.26799 5.66669 1.27391C5.66669 1.27982 5.66669 1.28575 5.66669 1.29168C5.66669 1.29762 5.66669 1.30357 5.66669 1.30952C5.66669 1.31548 5.66669 1.32145 5.66669 1.32742C5.66669 1.3334 5.66669 1.33939 5.66669 1.34539C5.66669 1.35138 5.66669 1.35739 5.66669 1.36341C5.66669 1.36943 5.66669 1.37546 5.66669 1.38149C5.66669 1.38753 5.66669 1.39358 5.66669 1.39964C5.66669 1.40569 5.66669 1.41176 5.66669 1.41784C5.66669 1.42392 5.66669 1.43 5.66669 1.4361C5.66669 1.4422 5.66669 1.4483 5.66669 1.45442C5.66669 1.46054 5.66669 1.46666 5.66669 1.4728C5.66669 1.47894 5.66669 1.48508 5.66669 1.49124C5.66669 1.49739 5.66669 1.50356 5.66669 1.50973C5.66669 1.51591 5.66669 1.52209 5.66669 1.52829C5.66669 1.53448 5.66669 1.54068 5.66669 1.5469C5.66669 1.55311 5.66669 1.55933 5.66669 1.56556C5.66669 1.57179 5.66669 1.57803 5.66669 1.58428C5.66669 1.59053 5.66669 1.59679 5.66669 1.60306C5.66669 1.60933 5.66669 1.61561 5.66669 1.6219C5.66669 1.62818 5.66669 1.63448 5.66669 1.64078C5.66669 1.64709 5.66669 1.6534 5.66669 1.65973C5.66669 1.66605 5.66669 1.67238 5.66669 1.67873C5.66669 1.68507 5.66669 1.69142 5.66669 1.69778C5.66669 1.70414 5.66669 1.71051 5.66669 1.71688C5.66669 1.72326 5.66669 1.72965 5.66669 1.73604C5.66669 1.74244 5.66669 1.74884 5.66669 1.75525C5.66669 1.76167 5.66669 1.76809 5.66669 1.77452C5.66669 1.78095 5.66669 1.78739 5.66669 1.79384C5.66669 1.80028 5.66669 1.80674 5.66669 1.8132C5.66669 1.81967 5.66669 1.82614 5.66669 1.83262C5.66669 1.83911 5.66669 1.8456 5.66669 1.8521C5.66669 1.85859 5.66669 1.8651 5.66669 1.87162C5.66669 1.87813 5.66669 1.88466 5.66669 1.89119C5.66669 1.89772 5.66669 1.90426 5.66669 1.91081C5.66669 1.91736 5.66669 1.92392 5.66669 1.93048C5.66669 1.93705 5.66669 1.94362 5.66669 1.95021C5.66669 1.95679 5.66669 1.96338 5.66669 1.96998C5.66669 1.97657 5.66669 1.98318 5.66669 1.98979C5.66669 1.99641 5.66669 2.00303 5.66669 2.00966C5.66669 2.01629 5.66669 2.02293 5.66669 2.02958C5.66669 2.03622 5.66669 2.04288 5.66669 2.04954C5.66669 2.0562 5.66669 2.06287 5.66669 2.06955C5.66669 2.07622 5.66669 2.08291 5.66669 2.0896C5.66669 2.0963 5.66669 2.103 5.66669 2.1097C5.66669 2.11641 5.66669 2.12313 5.66669 2.12985C5.66669 2.13658 5.66669 2.14331 5.66669 2.15005C5.66669 2.15679 5.66669 2.16353 5.66669 2.17029C5.66669 2.17704 5.66669 2.1838 5.66669 2.19057C5.66669 2.19734 5.66669 2.20411 5.66669 2.2109C5.66669 2.21768 5.66669 2.22447 5.66669 2.23127C5.66669 2.23807 5.66669 2.24487 5.66669 2.25169C5.66669 2.2585 5.66669 2.26532 5.66669 2.27215C5.66669 2.27897 5.66669 2.28581 5.66669 2.29265C5.66669 2.29949 5.66669 2.30634 5.66669 2.31319C5.66669 2.32005 5.66669 2.32691 5.66669 2.33378C5.66669 2.34065 5.66669 2.34753 5.66669 2.35441C5.66669 2.36129 5.66669 2.36818 5.66669 2.37508C5.66669 2.38198 5.66669 2.38888 5.66669 2.39579C5.66669 2.4027 5.66669 2.40962 5.66669 2.41655C5.66669 2.42347 5.66669 2.4304 5.66669 2.43734C5.66669 2.44428 5.66669 2.45122 5.66669 2.45817C5.66669 2.46512 5.66669 2.47208 5.66669 2.47905C5.66669 2.48601 5.66669 2.49298 5.66669 2.49996C5.66669 2.50694 5.66669 2.51392 5.66669 2.52091C5.66669 2.5279 5.66669 2.5349 5.66669 2.5419C5.66669 2.5489 5.66669 2.55591 5.66669 2.56293C5.66669 2.56994 5.66669 2.57697 5.66669 2.584C5.66669 2.59102 5.66669 2.59806 5.66669 2.6051C5.66669 2.61214 5.66669 2.61919 5.66669 2.62624C5.66669 2.63329 5.66669 2.64035 5.66669 2.64742C5.66669 2.65448 5.66669 2.66155 5.66669 2.66863C5.66669 2.67571 5.66669 2.68279 5.66669 2.68988C5.66669 2.69697 5.66669 2.70407 5.66669 2.71117C5.66669 2.71827 5.66669 2.72538 5.66669 2.73249C5.66669 2.7396 5.66669 2.74672 5.66669 2.75384C5.66669 2.76097 5.66669 2.7681 5.66669 2.77524C5.66669 2.78237 5.66669 2.78951 5.66669 2.79666C5.66669 2.80381 5.66669 2.81096 5.66669 2.81812C5.66669 2.82528 5.66669 2.83244 5.66669 2.83961C5.66669 2.84678 5.66669 2.85396 5.66669 2.86114C5.66669 2.86832 5.66669 2.8755 5.66669 2.88269C5.66669 2.88989 5.66669 2.89708 5.66669 2.90428C5.66669 2.91149 5.66669 2.91869 5.66669 2.92591C5.66669 2.93312 5.66669 2.94034 5.66669 2.94756C5.66669 2.95478 5.66669 2.96201 5.66669 2.96925C5.66669 2.97648 5.66669 2.98372 5.66669 2.99096C5.66669 2.99821 5.66669 3.00545 5.66669 3.01271C5.66669 3.01996 5.66669 3.02722 5.66669 3.03448C5.66669 3.04175 5.66669 3.04902 5.66669 3.05629C5.66669 3.06356 5.66669 3.07084 5.66669 3.07813C5.66669 3.08541 5.66669 3.0927 5.66669 3.09999C5.66669 3.10729 5.66669 3.11458 5.66669 3.12189C5.66669 3.12919 5.66669 3.1365 5.66669 3.14381C5.66669 3.15112 5.66669 3.15844 5.66669 3.16576C5.66669 3.17308 5.66669 3.1804 5.66669 3.18773C5.66669 3.19507 5.66669 3.2024 5.66669 3.20974C5.66669 3.21708 5.66669 3.22442 5.66669 3.23177C5.66669 3.23912 5.66669 3.24647 5.66669 3.25383C5.66669 3.26119 5.66669 3.26855 5.66669 3.27591C5.66669 3.28328 5.66669 3.29065 5.66669 3.29802C5.66669 3.3054 5.66669 3.31278 5.66669 3.32016C5.66669 3.32754 5.66669 3.33493 5.66669 3.34232C5.66669 3.34971 5.66669 3.3571 5.66669 3.3645C5.66669 3.3719 5.66669 3.37931 5.66669 3.38671C5.66669 3.39412 5.66669 3.40153 5.66669 3.40895C5.66669 3.41636 5.66669 3.42378 5.66669 3.4312C5.66669 3.43863 5.66669 3.44605 5.66669 3.45348C5.66669 3.46091 5.66669 3.46835 5.66669 3.47579C5.66669 3.48322 5.66669 3.49066 5.66669 3.49811C5.66669 3.50556 5.66669 3.513 5.66669 3.52046C5.66669 3.52791 5.66669 3.53537 5.66669 3.54283C5.66669 3.55029 5.66669 3.55775 5.66669 3.56522C5.66669 3.57268 5.66669 3.58015 5.66669 3.58763C5.66669 3.5951 5.66669 3.60258 5.66669 3.61006C5.66669 3.61754 5.66669 3.62502 5.66669 3.63251C5.66669 3.64 5.66669 3.64749 5.66669 3.65498C5.66669 3.66248 5.66669 3.66997 5.66669 3.67747C5.66669 3.68497 5.66669 3.69248 5.66669 3.69998C5.66669 3.70749 5.66669 3.715 5.66669 3.72251C5.66669 3.73003 5.66669 3.73754 5.66669 3.74506C5.66669 3.75258 5.66669 3.7601 5.66669 3.76763C5.66669 3.77515 5.66669 3.78268 5.66669 3.79021C5.66669 3.79774 5.66669 3.80527 5.66669 3.81281C5.66669 3.82035 5.66669 3.82789 5.66669 3.83543C5.66669 3.84297 5.66669 3.85052 5.66669 3.85806C5.66669 3.86561 5.66669 3.87316 5.66669 3.88071C5.66669 3.88827 5.66669 3.89582 5.66669 3.90338C5.66669 3.91094 5.66669 3.9185 5.66669 3.92606C5.66669 3.93362 5.66669 3.94119 5.66669 3.94876C5.66669 3.95633 5.66669 3.9639 5.66669 3.97147C5.66669 3.97904 5.66669 3.98662 5.66669 3.99419C5.66669 4.00177 5.66669 4.00935 5.66669 4.01693C5.66669 4.02452 5.66669 4.0321 5.66669 4.03969C5.66669 4.04727 5.66669 4.05486 5.66669 4.06245C5.66669 4.07004 5.66669 4.07764 5.66669 4.08523C5.66669 4.09283 5.66669 4.10043 5.66669 4.10802C5.66669 4.11562 5.66669 4.12323 5.66669 4.13083C5.66669 4.13843 5.66669 4.14604 5.66669 4.15364C5.66669 4.16125 5.66669 4.16886 5.66669 4.17647C5.66669 4.18408 5.66669 4.1917 5.66669 4.19931C5.66669 4.20692 5.66669 4.21454 5.66669 4.22216C5.66669 4.22978 5.66669 4.2374 5.66669 4.24502C5.66669 4.25264 5.66669 4.26026 5.66669 4.26789C5.66669 4.27551 5.66669 4.28314 5.66669 4.29077C5.66669 4.29839 5.66669 4.30602 5.66669 4.31365C5.66669 4.32129 5.66669 4.32892 5.66669 4.33655C5.66669 4.34419 5.66669 4.35182 5.66669 4.35946C5.66669 4.36709 5.66669 4.37473 5.66669 4.38237C5.66669 4.39001 5.66669 4.39765 5.66669 4.40529C5.66669 4.41293 5.66669 4.42058 5.66669 4.42822C5.66669 4.43586 5.66669 4.44351 5.66669 4.45116C5.66669 4.4588 5.66669 4.46645 5.66669 4.4741C5.66669 4.48175 5.66669 4.4894 5.66669 4.49705C5.66669 4.5047 5.66669 4.51235 5.66669 4.52C5.66669 4.52765 5.66669 4.53531 5.66669 4.54296C5.66669 4.55061 5.66669 4.55827 5.66669 4.56592C5.66669 4.57358 5.66669 4.58124 5.66669 4.58889C5.66669 4.59655 5.66669 4.60421 5.66669 4.61187C5.66669 4.61953 5.66669 4.62719 5.66669 4.63485C5.66669 4.64251 5.66669 4.65017 5.66669 4.65783C5.66669 4.66549 5.66669 4.67315 5.66669 4.68081C5.66669 4.68848 5.66669 4.69614 5.66669 4.7038C5.66669 4.71147 5.66669 4.71913 5.66669 4.72679C5.66669 4.73446 5.66669 4.74212 5.66669 4.74979C5.66669 4.75745 5.66669 4.76512 5.66669 4.77278C5.66669 4.78045 5.66669 4.78811 5.66669 4.79578C5.66669 4.80344 5.66669 4.81111 5.66669 4.81877C5.66669 4.82644 5.66669 4.83411 5.66669 4.84177C5.66669 4.84944 5.66669 4.85711 5.66669 4.86477C5.66669 4.87244 5.66669 4.8801 5.66669 4.88777C5.66669 4.89544 5.66669 4.9031 5.66669 4.91077C5.66669 4.91843 5.66669 4.9261 5.66669 4.93377C5.66669 4.94143 5.66669 4.9491 5.66669 4.95676C5.66669 4.96443 5.66669 4.97209 5.66669 4.97976C5.66669 4.98742 5.66669 4.99509 5.66669 5.00275C5.66669 5.01042 5.66669 5.01808 5.66669 5.02574C5.66669 5.03341 5.66669 5.04107 5.66669 5.04873C5.66669 5.05639 5.66669 5.06405 5.66669 5.07172C5.66669 5.07938 5.66669 5.08704 5.66669 5.0947C5.66669 5.10236 5.66669 5.11002 5.66669 5.11768C5.66669 5.12534 5.66669 5.13299 5.66669 5.14065C5.66669 5.14831 5.66669 5.15597 5.66669 5.16362C5.66669 5.17128 5.66669 5.17893 5.66669 5.18659C5.66669 5.19424 5.66669 5.20189 5.66669 5.20955C5.66669 5.2172 5.66669 5.22485 5.66669 5.2325C5.66669 5.24015 5.66669 5.2478 5.66669 5.25545C5.66669 5.2631 5.66669 5.27075 5.66669 5.27839C5.66669 5.28604 5.66669 5.29369 5.66669 5.30133C5.66669 5.30897 5.66669 5.31662 5.66669 5.32426C5.66669 5.3319 5.66669 5.33954 5.66669 5.34718C5.66669 5.35482 5.66669 5.36246 5.66669 5.37009C5.66669 5.37773 5.66669 5.38537 5.66669 5.393C5.66669 5.40063 5.66669 5.40827 5.66669 5.4159C5.66669 5.42353 5.66669 5.43116 5.66669 5.43879C5.66669 5.44641 5.66669 5.45404 5.66669 5.46167C5.66669 5.46929 5.66669 5.47691 5.66669 5.48454C5.66669 5.49216 5.66669 5.49978 5.66669 5.5074C5.66669 5.51501 5.66669 5.52263 5.66669 5.53025C5.66669 5.53786 5.66669 5.54547 5.66669 5.55309C5.66669 5.5607 5.66669 5.56831 5.66669 5.57591C5.66669 5.58352 5.66669 5.59113 5.66669 5.59873C5.66669 5.60633 5.66669 5.61394 5.66669 5.62154C5.66669 5.62914 5.66669 5.63673 5.66669 5.64433C5.66669 5.65192 5.66669 5.65952 5.66669 5.66711C5.66669 5.6747 5.66669 5.68229 5.66669 5.68988C5.66669 5.69746 5.66669 5.70505 5.66669 5.71263C5.66669 5.72021 5.66669 5.72779 5.66669 5.73537C5.66669 5.74295 5.66669 5.75053 5.66669 5.7581C5.66669 5.76567 5.66669 5.77324 5.66669 5.78081C5.66669 5.78838 5.66669 5.79595 5.66669 5.80351C5.66669 5.81107 5.66669 5.81863 5.66669 5.82619C5.66669 5.83375 5.66669 5.84131 5.66669 5.84886C5.66669 5.85641 5.66669 5.86396 5.66669 5.87151C5.66669 5.87906 5.66669 5.8866 5.66669 5.89415C5.66669 5.90169 5.66669 5.90923 5.66669 5.91677C5.66669 5.9243 5.66669 5.93184 5.66669 5.93937C5.66669 5.9469 5.66669 5.95443 5.66669 5.96195C5.66669 5.96948 5.66669 5.977 5.66669 5.98452C5.66669 5.99204 5.66669 5.99956 5.66669 6.00707C5.66669 6.01458 5.66669 6.02209 5.66669 6.0296C5.66669 6.03711 5.66669 6.04461 5.66669 6.05211C5.66669 6.05961 5.66669 6.06711 5.66669 6.0746C5.66669 6.0821 5.66669 6.08959 5.66669 6.09708C5.66669 6.10457 5.66669 6.11205 5.66669 6.11953C5.66669 6.12701 5.66669 6.13449 5.66669 6.14196C5.66669 6.14944 5.66669 6.15691 5.66669 6.16438C5.66669 6.17185 5.66669 6.17931 5.66669 6.18677C5.66669 6.19423 5.66669 6.20169 5.66669 6.20914C5.66669 6.21659 5.66669 6.22404 5.66669 6.23149C5.66669 6.23894 5.66669 6.24638 5.66669 6.25382C5.66669 6.26125 5.66669 6.26869 5.66669 6.27612C5.66669 6.28355 5.66669 6.29098 5.66669 6.2984C5.66669 6.30583 5.66669 6.31325 5.66669 6.32066C5.66669 6.32808 5.66669 6.33549 5.66669 6.3429C5.66669 6.3503 5.66669 6.35771 5.66669 6.36511C5.66669 6.37251 5.66669 6.3799 5.66669 6.38729C5.66669 6.39469 5.66669 6.40207 5.66669 6.40946C5.66669 6.41684 5.66669 6.42422 5.66669 6.43159C5.66669 6.43897 5.66669 6.44634 5.66669 6.45371C5.66669 6.46107 5.66669 6.46843 5.66669 6.47579C5.66669 6.48315 5.66669 6.4905 5.66669 6.49785C5.66669 6.5052 5.66669 6.51255 5.66669 6.51989C5.66669 6.52723 5.66669 6.53456 5.66669 6.54189C5.66669 6.54922 5.66669 6.55655 5.66669 6.56387C5.66669 6.5712 5.66669 6.57851 5.66669 6.58583C5.66669 6.59314 5.66669 6.60045 5.66669 6.60775C5.66669 6.61505 5.66669 6.62235 5.66669 6.62965C5.66669 6.63694 5.66669 6.64423 5.66669 6.65151C5.66669 6.6588 5.66669 6.66608 5.66669 6.67335C5.66669 6.68063 5.66669 6.6879 5.66669 6.69516C5.66669 6.70243 5.66669 6.70969 5.66669 6.71694C5.66669 6.72419 5.66669 6.73144 5.66669 6.73869C5.66669 6.74593 5.66669 6.75317 5.66669 6.76041C5.66669 6.76764 5.66669 6.77487 5.66669 6.7821C5.66669 6.78932 5.66669 6.79654 5.66669 6.80375C5.66669 6.81097 5.66669 6.81817 5.66669 6.82538C5.66669 6.83258 5.66669 6.83978 5.66669 6.84697C5.66669 6.85416 5.66669 6.86135 5.66669 6.86853C5.66669 6.87571 5.66669 6.88289 5.66669 6.89006C5.66669 6.89723 5.66669 6.90439 5.66669 6.91155C5.66669 6.91871 5.66669 6.92587 5.66669 6.93301C5.66669 6.94016 5.66669 6.94731 5.66669 6.95444C5.66669 6.96158 5.66669 6.96871 5.66669 6.97584C5.66669 6.98296 5.66669 6.99008 5.66669 6.99719C5.66669 7.00431 5.66669 7.01142 5.66669 7.01852C5.66669 7.02562 5.66669 7.03272 5.66669 7.03981C5.66669 7.0469 5.66669 7.05398 5.66669 7.06106C5.66669 7.06814 5.66669 7.07521 5.66669 7.08228C5.66669 7.08934 5.66669 7.0964 5.66669 7.10346C5.66669 7.11051 5.66669 7.11756 5.66669 7.1246C5.66669 7.13164 5.66669 7.13868 5.66669 7.14571C5.66669 7.15274 5.66669 7.15976 5.66669 7.16678C5.66669 7.1738 5.66669 7.18081 5.66669 7.18781C5.66669 7.19481 5.66669 7.20181 5.66669 7.2088C5.66669 7.21579 5.66669 7.22278 5.66669 7.22976C5.66669 7.23674 5.66669 7.24371 5.66669 7.25067C5.66669 7.25764 5.66669 7.2646 5.66669 7.27155C5.66669 7.2785 5.66669 7.28545 5.66669 7.29239C5.66669 7.29933 5.66669 7.30626 5.66669 7.31318C5.66669 7.32011 5.66669 7.32703 5.66669 7.33394C5.66669 7.34085 5.66669 7.34776 5.66669 7.35466C5.66669 7.36155 5.66669 7.36845 5.66669 7.37533C5.66669 7.38222 5.66669 7.38909 5.66669 7.39596C5.66669 7.40283 5.66669 7.4097 5.66669 7.41655C5.66669 7.42341 5.66669 7.43026 5.66669 7.4371C5.66669 7.44395 5.66669 7.45078 5.66669 7.45761C5.66669 7.46444 5.66669 7.47126 5.66669 7.47807C5.66669 7.48489 5.66669 7.49169 5.66669 7.49849C5.66669 7.50529 5.66669 7.51208 5.66669 7.51887C5.66669 7.52565 5.66669 7.53243 5.66669 7.5392C5.66669 7.54597 5.66669 7.55273 5.66669 7.55949C5.66669 7.56624 5.66669 7.57299 5.66669 7.57973C5.66669 7.58647 5.66669 7.5932 5.66669 7.59993C5.66669 7.60665 5.66669 7.61337 5.66669 7.62008C5.66669 7.62679 5.66669 7.63349 5.66669 7.64019C5.66669 7.64688 5.66669 7.65357 5.66669 7.66025C5.66669 7.66693 5.66669 7.6736 5.66669 7.68026C5.66669 7.68692 5.66669 7.69358 5.66669 7.70023C5.66669 7.70687 5.66669 7.71351 5.66669 7.72014C5.66669 7.72678 5.66669 7.7334 5.66669 7.74001C5.66669 7.74663 5.66669 7.75324 5.66669 7.75984C5.66669 7.76644 5.66669 7.77303 5.66669 7.77961C5.66669 7.78619 5.66669 7.79277 5.66669 7.79934C5.66669 7.8059 5.66669 7.81246 5.66669 7.81901C5.66669 7.82556 5.66669 7.83211 5.66669 7.83864C5.66669 7.84517 5.66669 7.8517 5.66669 7.85822C5.66669 7.86473 5.66669 7.87124 5.66669 7.87774C5.66669 7.88424 5.66669 7.89073 5.66669 7.89722C5.66669 7.9037 5.66669 7.91018 5.66669 7.91664C5.66669 7.92311 5.66669 7.92957 5.66669 7.93602C5.66669 7.94246 5.66669 7.9489 5.66669 7.95534C5.66669 7.96177 5.66669 7.96819 5.66669 7.97461C5.66669 7.98102 5.66669 7.98743 5.66669 7.99382C5.66669 8.00022 5.66669 8.00661 5.66669 8.01299C5.66669 8.01936 5.66669 8.02573 5.66669 8.0321C5.66669 8.03846 5.66669 8.04481 5.66669 8.05115C5.66669 8.0575 5.66669 8.06383 5.66669 8.07015C5.66669 8.07648 5.66669 8.0828 5.66669 8.0891C5.66669 8.09541 5.66669 8.10171 5.66669 8.108C5.66669 8.11429 5.66669 8.12056 5.66669 8.12683C5.66669 8.1331 5.66669 8.13937 5.66669 8.14562C5.66669 8.15187 5.66669 8.15811 5.66669 8.16434C5.66669 8.17058 5.66669 8.1768 5.66669 8.18302C5.66669 8.18923 5.66669 8.19543 5.66669 8.20163C5.66669 8.20782 5.66669 8.21401 5.66669 8.22019C5.66669 8.22636 5.66669 8.23253 5.66669 8.23869C5.66669 8.24484 5.66669 8.25099 5.66669 8.25713C5.66669 8.26327 5.66669 8.26939 5.66669 8.27551C5.66669 8.28163 5.66669 8.28774 5.66669 8.29384C5.66669 8.29994 5.66669 8.30603 5.66669 8.31211C5.66669 8.31818 5.66669 8.32425 5.66669 8.33031C5.66669 8.33637 5.66669 8.34242 5.66669 8.34846C5.66669 8.3545 5.66669 8.36053 5.66669 8.36655C5.66669 8.37257 5.66669 8.37858 5.66669 8.38458C5.66669 8.39058 5.66669 8.39657 5.66669 8.40255C5.66669 8.40852 5.66669 8.41449 5.66669 8.42045C5.66669 8.42641 5.66669 8.43236 5.66669 8.4383C5.66669 8.44423 5.66669 8.45016 5.66669 8.45608C5.66669 8.462 5.66669 8.4679 5.66669 8.4738C5.66669 8.4797 5.66669 8.48558 5.66669 8.49146C5.66669 8.49734 5.66669 8.5032 5.66669 8.50906C5.66669 8.51491 5.66669 8.52076 5.66669 8.52659C5.66669 8.53242 5.66669 8.53825 5.66669 8.54406C5.66669 8.54987 5.66669 8.55567 5.66669 8.56146C5.66669 8.56725 5.66669 8.57303 5.66669 8.5788C5.66669 8.58457 5.66669 8.59033 5.66669 8.59608C5.66669 8.60183 5.66669 8.60757 5.66669 8.61329C5.66669 8.61902 5.66669 8.62473 5.66669 8.63044C5.66669 8.63614 5.66669 8.64183 5.66669 8.64752C5.66669 8.6532 5.66669 8.65887 5.66669 8.66453C5.66669 8.67019 5.66669 8.67584 5.66669 8.68148C5.66669 8.68712 5.66669 8.69274 5.66669 8.69836C5.66669 8.70397 5.66669 8.70958 5.66669 8.71517C5.66669 8.72077 5.66669 8.72635 5.66669 8.73192C5.66669 8.73749 5.66669 8.74305 5.66669 8.7486C5.66669 8.75414 5.66669 8.75968 5.66669 8.7652C5.66669 8.77073 5.66669 8.77624 5.66669 8.78174C5.66669 8.78725 5.66669 8.79274 5.66669 8.79822C5.66669 8.8037 5.66669 8.80916 5.66669 8.81462C5.66669 8.82007 5.66669 8.82552 5.66669 8.83095C5.66669 8.83638 5.66669 8.8418 5.66669 8.84721C5.66669 8.85262 5.66669 8.85802 5.66669 8.8634C5.66669 8.86879 5.66669 8.87416 5.66669 8.87952C5.66669 8.88489 5.66669 8.89024 5.66669 8.89557C5.66669 8.90091 5.66669 8.90624 5.66669 8.91155C5.66669 8.91686 5.66669 8.92217 5.66669 8.92746C5.66669 8.93275 5.66669 8.93802 5.66669 8.94329C5.66669 8.94856 5.66669 8.95381 5.66669 8.95905C5.66669 8.96429 5.66669 8.96952 5.66669 8.97474C5.66669 8.97995 5.66669 8.98516 5.66669 8.99035C5.66669 8.99554 5.66669 9.00072 5.66669 9.00589C5.66669 9.01106 5.66669 9.01621 5.66669 9.02136C5.66669 9.0265 5.66669 9.03163 5.66669 9.03675C5.66669 9.04187 5.66669 9.04697 5.66669 9.05206C5.66669 9.05716 5.66669 9.06224 5.66669 9.0673C5.66669 9.07237 5.66669 9.07743 5.66669 9.08247C5.66669 9.08751 5.66669 9.09254 5.66669 9.09756C5.66669 9.10258 5.66669 9.10758 5.66669 9.11257C5.66669 9.11756 5.66669 9.12254 5.66669 9.12751C5.66669 9.13247 5.66669 9.13743 5.66669 9.14237C5.66669 9.14731 5.66669 9.15223 5.66669 9.15715C5.66669 9.16206 5.66669 9.16696 5.66669 9.17185C5.66669 9.17674 5.66669 9.18161 5.66669 9.18647C5.66669 9.19134 5.66669 9.19618 5.66669 9.20102C5.66669 9.20586 5.66669 9.21068 5.66669 9.21549C5.66669 9.2203 5.66669 9.22509 5.66669 9.22988C5.66669 9.23466 5.66669 9.23943 5.66669 9.24418C5.66669 9.24894 5.66669 9.25368 5.66669 9.25841C5.66669 9.26314 5.66669 9.26786 5.66669 9.27256C5.66669 9.27726 5.66669 9.28195 5.66669 9.28663C5.66669 9.2913 5.66669 9.29596 5.66669 9.30061C5.66669 9.30526 5.66669 9.30989 5.66669 9.31451C5.66669 9.31914 5.66669 9.32374 5.66669 9.32834C5.66669 9.33293 5.66669 9.33751 5.66669 9.34208C5.66669 9.34664 5.66669 9.35119 5.66669 9.35573C5.66669 9.36027 5.66669 9.3648 5.66669 9.36931C5.66669 9.37382 5.66669 9.37831 5.66669 9.3828C5.66669 9.38728 5.66669 9.39175 5.66669 9.3962C5.66669 9.40066 5.66669 9.4051 5.66669 9.40953C5.66669 9.41395 5.66669 9.41837 5.66669 9.42276C5.66669 9.42716 5.66669 9.43155 5.66669 9.43592C5.66669 9.44029 5.66669 9.44464 5.66669 9.44898C5.66669 9.45333 5.66669 9.45765 5.66669 9.46197C5.66669 9.46628 5.66669 9.47058 5.66669 9.47486C5.66669 9.47915 5.66669 9.48342 5.66669 9.48767C5.66669 9.49193 5.66669 9.49617 5.66669 9.5004C5.66669 9.50462 5.66669 9.50883 5.66669 9.51303C5.66669 9.51723 5.66669 9.52141 5.66669 9.52558C5.66669 9.52975 5.66669 9.5339 5.66669 9.53804C5.66669 9.54218 5.66669 9.5463 5.66669 9.55041C5.66669 9.55452 5.66669 9.55862 5.66669 9.5627C5.66669 9.56678 5.66669 9.57084 5.66669 9.57489C5.66669 9.57894 5.66669 9.58298 5.66669 9.587C5.66669 9.59102 5.66669 9.59502 5.66669 9.59901C5.66669 9.603 5.66669 9.60698 5.66669 9.61094C5.66669 9.6149 5.66669 9.61885 5.66669 9.62278C5.66669 9.62671 5.66669 9.63062 5.66669 9.63452C5.66669 9.63842 5.66669 9.6423 5.66669 9.64617C5.66669 9.65004 5.66669 9.6539 5.66669 9.65774C5.66669 9.66157 5.66669 9.6654 5.66669 9.66921C5.66669 9.67301 5.66669 9.67681 5.66669 9.68058C5.66669 9.68436 5.66669 9.68812 5.66669 9.69187C5.66669 9.69562 5.66669 9.69935 5.66669 9.70306C5.66669 9.70678 5.66669 9.71048 5.66669 9.71416C5.66669 9.71785 5.66669 9.72151 5.66669 9.72517C5.66669 9.72882 5.66669 9.73246 5.66669 9.73608C5.66669 9.7397 5.66669 9.7433 5.66669 9.74689C5.66669 9.75048 5.66669 9.75406 5.66669 9.75762C5.66669 9.76117 5.66669 9.76472 5.66669 9.76824C5.66669 9.77177 5.66669 9.77528 5.66669 9.77877C5.66669 9.78227 5.66669 9.78575 5.66669 9.78921C5.66669 9.79267 5.66669 9.79612 5.66669 9.79955C5.66669 9.80298 5.66669 9.80639 5.66669 9.80979C5.66669 9.81319 5.66669 9.81657 5.66669 9.81994C5.66669 9.8233 5.66669 9.82665 5.66669 9.82998C5.66669 9.83332 5.66669 9.83663 5.66669 9.83994C5.66669 9.84324 5.66669 9.84652 5.66669 9.84979C5.66669 9.85305 5.66669 9.85631 5.66669 9.85954C5.66669 9.86278 5.66669 9.86599 5.66669 9.8692C5.66669 9.8724 5.66669 9.87558 5.66669 9.87875C5.66669 9.88192 5.66669 9.88507 5.66669 9.88821C5.66669 9.89134 5.66669 9.89446 5.66669 9.89756C5.66669 9.90067 5.66669 9.90375 5.66669 9.90682C5.66669 9.90989 5.66669 9.91294 5.66669 9.91597C5.66669 9.91901 5.66669 9.92203 5.66669 9.92503C5.66669 9.92803 5.66669 9.93101 5.66669 9.93398C5.66669 9.93695 5.66669 9.9399 5.66669 9.94283C5.66669 9.94576 5.66669 9.94868 5.66669 9.95158C5.66669 9.95448 5.66669 9.95736 5.66669 9.96023C5.66669 9.96309 5.66669 9.96594 5.66669 9.96877C5.66669 9.9716 5.66669 9.97441 5.66669 9.97721C5.66669 9.98 5.66669 9.98278 5.66669 9.98554C5.66669 9.98831 5.66669 9.99105 5.66669 9.99378C5.66669 9.9965 5.66669 9.99921 5.66669 10.0019C5.66669 10.0046 5.66669 10.0073 5.66669 10.0099C5.66669 10.0126 5.66669 10.0152 5.66669 10.0178C5.66669 10.0205 5.66669 10.0231 5.66669 10.0257C5.66669 10.0282 5.66669 10.0308 5.66669 10.0334C5.66669 10.0359 5.66669 10.0384 5.66669 10.041C5.66669 10.0435 5.66669 10.046 5.66669 10.0485C5.66669 10.0509 5.66669 10.0534 5.66669 10.0558C5.66669 10.0583 5.66669 10.0607 5.66669 10.0631C5.66669 10.0655 5.66669 10.0679 5.66669 10.0703C5.66669 10.0727 5.66669 10.075 5.66669 10.0774C5.66669 10.0797 5.66669 10.082 5.66669 10.0843C5.66669 10.0866 5.66669 10.0889 5.66669 10.0912C5.66669 10.0934 5.66669 10.0957 5.66669 10.0979C5.66669 10.1001 5.66669 10.1023 5.66669 10.1045C5.66669 10.1067 5.66669 10.1089 5.66669 10.111C5.66669 10.1132 5.66669 10.1153 5.66669 10.1175C5.66669 10.1196 5.66669 10.1217 5.66669 10.1238C5.66669 10.1258 5.66669 10.1279 5.66669 10.1299C5.66669 10.132 5.66669 10.134 5.66669 10.136C5.66669 10.138 5.66669 10.14 5.66669 10.142C5.66669 10.1439 5.66669 10.1459 5.66669 10.1478C5.66669 10.1498 5.66669 10.1517 5.66669 10.1536C5.66669 10.1555 5.66669 10.1573 5.66669 10.1592C5.66669 10.161 5.66669 10.1629 5.66669 10.1647C5.66669 10.1665 5.66669 10.1683 5.66669 10.1701C5.66669 10.1719 5.66669 10.1736 5.66669 10.1754C5.66669 10.1771 5.66669 10.1789 5.66669 10.1806C5.66669 10.1823 5.66669 10.1839 5.66669 10.1856C5.66669 10.1873 5.66669 10.1889 5.66669 10.1906C5.66669 10.1922 5.66669 10.1938 5.66669 10.1954C5.66669 10.197 5.66669 10.1985 5.66669 10.2001C5.66669 10.2016 5.66669 10.2032 5.66669 10.2047C5.66669 10.2062 5.66669 10.2077 5.66669 10.2092C5.66669 10.2106 5.66669 10.2121 5.66669 10.2135C5.66669 10.215 5.66669 10.2164 5.66669 10.2178C5.66669 10.2192 5.66669 10.2205 5.66669 10.2219C5.66669 10.2232 5.66669 10.2246 5.66669 10.2259C5.66669 10.2272 5.66669 10.2285 5.66669 10.2298C5.66669 10.2311 5.66669 10.2323 5.66669 10.2336C5.66669 10.2348 5.66669 10.236 5.66669 10.2372C5.66669 10.2384 5.66669 10.2396 5.66669 10.2407H7.66669Z" fill="var(--color)"/>
<path d="M20 16C20.5523 16 21 15.5523 21 15C21 14.4477 20.5523 14 20 14V16ZM14 1V11.0136H16V1H14ZM14 11.0136C14 12.7551 14.6006 14.0905 15.7948 14.9412C16.9215 15.7437 18.4232 16 20 16V14C18.5768 14 17.5785 13.7563 16.9552 13.3122C16.3994 12.9163 16 12.2586 16 11.0136H14Z" fill="var(--color)"/>
<path d="M21 2.24075C21.5523 2.24075 22 1.79303 22 1.24075C22 0.688461 21.5523 0.240746 21 0.240746V2.24075ZM1 0.240746C0.447715 0.240746 0 0.688461 0 1.24075C0 1.79303 0.447715 2.24075 1 2.24075V0.240746ZM21 0.240746H1V2.24075H21V0.240746Z" fill="var(--color)"/>
</svg>
