<svg width="16" height="20" viewBox="0 0 16 20" fill="none" xmlns="http://www.w3.org/2000/svg">
<path fill-rule="evenodd" clip-rule="evenodd" d="M7.2 8.8L7.2 15.2C7.2 15.6418 7.55817 16 8 16V16C8.44183 16 8.8 15.6418 8.8 15.2L8.8 8.8L15.2 8.8C15.6418 8.8 16 8.44183 16 8V8C16 7.55817 15.6418 7.2 15.2 7.2L8.8 7.2V0.8C8.8 0.358172 8.44183 0 8 0V0C7.55817 0 7.2 0.358172 7.2 0.8V7.2L0.8 7.2C0.358172 7.2 0 7.55817 0 8V8C0 8.44183 0.358172 8.8 0.8 8.8L7.2 8.8Z" fill="var(--color)"/>
<line x1="1" y1="19" x2="15" y2="19" stroke="var(--color)" stroke-width="2" stroke-linecap="round"/>
</svg>
