<svg width="20" height="20" viewBox="0 0 20 20" fill="none" xmlns="http://www.w3.org/2000/svg">
<path d="M0 10.6667H20" stroke="var(--color2)"/>
<path d="M9.33331 20V0" stroke="var(--color2)"/>
<path d="M1 10.5C1 11.0523 1.44772 11.5 2 11.5C2.55228 11.5 3 11.0523 3 10.5H1ZM18 10.5C18 9.9477 17.5523 9.49999 17 9.49999C16.4477 9.49999 16 9.9477 16 10.5H18ZM3 10.5C3 8.46624 3.44139 7.04656 4.01069 6.16942C4.57691 5.29702 5.23008 5 5.75 5C6.26992 5 6.92309 5.29702 7.48931 6.16942C8.05861 7.04655 8.5 8.46623 8.5 10.5H10.5C10.5 8.20041 10.0039 6.3701 9.16694 5.08057C8.32691 3.78631 7.10508 3 5.75 3C4.39492 3 3.17309 3.78631 2.33306 5.08058C1.49611 6.3701 1 8.20042 1 10.5H3ZM8.5 10.5C8.5 14.4563 10.5924 17 13.25 17C15.9076 17 18 14.4563 18 10.5H16C16 13.877 14.3424 15 13.25 15C12.1576 15 10.5 13.877 10.5 10.5H8.5Z" fill="var(--color)"/>
</svg>
